<?xml version="1.0" encoding="UTF-8" standalone="no"?>
<!DOCTYPE svg PUBLIC "-//W3C//DTD SVG 1.0//EN"
        "http://www.w3.org/TR/2001/REC-SVG-20010904/DTD/svg10.dtd">

<svg version="1.0" xmlns="http://www.w3.org/2000/svg"
     width="700.000000pt" height="700.000000pt" viewBox="0 0 700 700"
     preserveAspectRatio="xMidYMid meet">
    <circle cx="350" cy="350" r="340" fill="#000000"/>
    <g transform="translate(0.000000,700.000000) scale(0.100000,-0.100000)"
       fill="rgb(99, 203, 212)" stroke="none">
        <path d="M3278 6996 c-1 -2 -42 -6 -89 -10 -47 -4 -95 -8 -105 -10 -10 -2 -45
-7 -78 -11 -101 -12 -215 -35 -380 -76 -296 -75 -599 -199 -881 -362 -103 -60
-265 -165 -315 -204 -8 -6 -51 -40 -95 -74 -426 -331 -813 -825 -1020 -1299
-25 -58 -50 -114 -55 -125 -45 -93 -150 -427 -176 -560 -2 -11 -10 -54 -19
-95 -29 -147 -35 -193 -52 -370 -15 -163 -8 -592 12 -711 2 -13 6 -46 9 -74
37 -328 168 -746 339 -1085 61 -122 169 -312 187 -330 3 -3 31 -43 62 -90 170
-255 431 -534 708 -755 92 -74 370 -265 386 -265 4 0 15 -6 23 -14 9 -7 81
-47 161 -88 354 -181 736 -303 1109 -354 25 -3 57 -8 71 -10 163 -25 682 -25
842 1 13 2 46 7 73 10 71 10 87 13 115 18 14 3 43 8 65 12 325 59 741 212
1039 384 49 28 91 51 93 51 10 0 268 180 353 247 152 119 324 280 450 422 36
41 70 79 76 85 65 68 263 353 352 508 47 80 182 351 182 364 0 3 8 24 19 47
53 118 147 417 177 562 17 81 54 301 59 350 4 33 9 71 11 85 9 47 11 525 3
605 -15 165 -21 220 -24 225 -2 3 -6 30 -10 60 -3 30 -10 71 -15 90 -5 19 -12
51 -15 70 -13 75 -67 275 -106 392 -349 1038 -1164 1854 -2204 2206 -167 56
-419 119 -555 137 -19 3 -46 7 -60 10 -13 2 -52 7 -86 11 -33 3 -74 8 -90 10
-33 5 -540 14 -546 10z m-717 -1355 c0 -9 1 -774 2 -1701 l2 -1685 370 -2
c204 -2 385 -3 403 -3 l32 0 0 -425 0 -425 -1068 0 -1068 0 2 2128 c1 1170 2
2127 3 2128 0 0 298 0 661 0 590 0 660 -2 661 -15z m2874 5 c214 -21 226 -22
305 -36 125 -21 167 -32 270 -67 357 -123 506 -340 537 -778 9 -133 10 -765 0
-885 -21 -276 -90 -432 -241 -547 -126 -96 -331 -167 -561 -197 -110 -15 -191
-19 -430 -21 -143 -2 -267 -4 -275 -4 -14 -1 -16 -92 -15 -847 0 -465 -3 -850
-6 -855 -3 -5 -275 -8 -665 -7 l-659 3 -1 2120 c0 1166 1 2123 2 2126 4 7
1667 2 1739 -5z"/>
        <path d="M5028 4923 c-3 -4 -4 -249 -4 -543 l1 -535 85 -1 c210 -1 290 53 326
221 13 61 11 578 -2 647 -30 159 -85 195 -320 213 -45 4 -84 3 -86 -2z"/>
    </g>
</svg>
