 <!DOCTYPE svg PUBLIC "-//W3C//DTD SVG 1.1//EN" "http://www.w3.org/Graphics/SVG/1.1/DTD/svg11.dtd">

<svg xmlns="http://www.w3.org/2000/svg" viewBox="0 0 700 500" width="700" height="500" style="overflow: hidden;">

<rect width="700" height="500" fill="rgb(75,183,185)"/>
<g fill="none" stroke-width="2" stroke="rgb(149,204,215)">
<polygon points="-27.5,-101.8717782649107 7.5,-41.25 -27.5,19.371778264910702 -62.5,-41.25"/>

<polygon points="27.5,-101.8717782649107 62.5,-41.25 27.5,19.371778264910702 -7.5,-41.25"/>

<polygon points="82.5,-101.8717782649107 117.5,-41.25 82.5,19.371778264910702 47.5,-41.25"/>

<polygon points="137.5,-101.8717782649107 172.5,-41.25 137.5,19.371778264910702 102.5,-41.25"/>

<polygon points="192.5,-101.8717782649107 227.5,-41.25 192.5,19.371778264910702 157.5,-41.25"/>

<polygon points="247.5,-101.8717782649107 282.5,-41.25 247.5,19.371778264910702 212.5,-41.25"/>

<polygon points="302.5,-101.8717782649107 337.5,-41.25 302.5,19.371778264910702 267.5,-41.25"/>

<polygon points="357.5,-101.8717782649107 392.5,-41.25 357.5,19.371778264910702 322.5,-41.25"/>

<polygon points="412.5,-101.8717782649107 447.5,-41.25 412.5,19.371778264910702 377.5,-41.25"/>

<polygon points="467.5,-101.8717782649107 502.5,-41.25 467.5,19.371778264910702 432.5,-41.25"/>

<polygon points="522.5,-101.8717782649107 557.5,-41.25 522.5,19.371778264910702 487.5,-41.25"/>

<polygon points="577.5,-101.8717782649107 612.5,-41.25 577.5,19.371778264910702 542.5,-41.25"/>

<polygon points="632.5,-101.8717782649107 667.5,-41.25 632.5,19.371778264910702 597.5,-41.25"/>

<polygon points="687.5,-101.8717782649107 722.5,-41.25 687.5,19.371778264910702 652.5,-41.25"/>

<polygon points="0,-74.3717782649107 35,-13.75 0,46.8717782649107 -35,-13.75"/>

<polygon points="55,-74.3717782649107 90,-13.75 55,46.8717782649107 20,-13.75"/>

<polygon points="110,-74.3717782649107 145,-13.75 110,46.8717782649107 75,-13.75"/>

<polygon points="165,-74.3717782649107 200,-13.75 165,46.8717782649107 130,-13.75"/>

<polygon points="220,-74.3717782649107 255,-13.75 220,46.8717782649107 185,-13.75"/>

<polygon points="275,-74.3717782649107 310,-13.75 275,46.8717782649107 240,-13.75"/>

<polygon points="330,-74.3717782649107 365,-13.75 330,46.8717782649107 295,-13.75"/>

<polygon points="385,-74.3717782649107 420,-13.75 385,46.8717782649107 350,-13.75"/>

<polygon points="440,-74.3717782649107 475,-13.75 440,46.8717782649107 405,-13.75"/>

<polygon points="495,-74.3717782649107 530,-13.75 495,46.8717782649107 460,-13.75"/>

<polygon points="550,-74.3717782649107 585,-13.75 550,46.8717782649107 515,-13.75"/>

<polygon points="605,-74.3717782649107 640,-13.75 605,46.8717782649107 570,-13.75"/>

<polygon points="660,-74.3717782649107 695,-13.75 660,46.8717782649107 625,-13.75"/>

<polygon points="715,-74.3717782649107 750,-13.75 715,46.8717782649107 680,-13.75"/>

<polygon points="-27.5,-46.8717782649107 7.5,13.75 -27.5,74.3717782649107 -62.5,13.75"/>

<polygon points="27.5,-46.8717782649107 62.5,13.75 27.5,74.3717782649107 -7.5,13.75"/>

<polygon points="82.5,-46.8717782649107 117.5,13.75 82.5,74.3717782649107 47.5,13.75"/>

<polygon points="137.5,-46.8717782649107 172.5,13.75 137.5,74.3717782649107 102.5,13.75"/>

<polygon points="192.5,-46.8717782649107 227.5,13.75 192.5,74.3717782649107 157.5,13.75"/>

<polygon points="247.5,-46.8717782649107 282.5,13.75 247.5,74.3717782649107 212.5,13.75"/>

<polygon points="302.5,-46.8717782649107 337.5,13.75 302.5,74.3717782649107 267.5,13.75"/>

<polygon points="357.5,-46.8717782649107 392.5,13.75 357.5,74.3717782649107 322.5,13.75"/>

<polygon points="412.5,-46.8717782649107 447.5,13.75 412.5,74.3717782649107 377.5,13.75"/>

<polygon points="467.5,-46.8717782649107 502.5,13.75 467.5,74.3717782649107 432.5,13.75"/>

<polygon points="522.5,-46.8717782649107 557.5,13.75 522.5,74.3717782649107 487.5,13.75"/>

<polygon points="577.5,-46.8717782649107 612.5,13.75 577.5,74.3717782649107 542.5,13.75"/>

<polygon points="632.5,-46.8717782649107 667.5,13.75 632.5,74.3717782649107 597.5,13.75"/>

<polygon points="687.5,-46.8717782649107 722.5,13.75 687.5,74.3717782649107 652.5,13.75"/>

<polygon points="0,-19.371778264910702 35,41.25 0,101.8717782649107 -35,41.25"/>

<polygon points="55,-19.371778264910702 90,41.25 55,101.8717782649107 20,41.25"/>

<polygon points="110,-19.371778264910702 145,41.25 110,101.8717782649107 75,41.25"/>

<polygon points="165,-19.371778264910702 200,41.25 165,101.8717782649107 130,41.25"/>

<polygon points="220,-19.371778264910702 255,41.25 220,101.8717782649107 185,41.25"/>

<polygon points="275,-19.371778264910702 310,41.25 275,101.8717782649107 240,41.25"/>

<polygon points="330,-19.371778264910702 365,41.25 330,101.8717782649107 295,41.25"/>

<polygon points="385,-19.371778264910702 420,41.25 385,101.8717782649107 350,41.25"/>

<polygon points="440,-19.371778264910702 475,41.25 440,101.8717782649107 405,41.25"/>

<polygon points="495,-19.371778264910702 530,41.25 495,101.8717782649107 460,41.25"/>

<polygon points="550,-19.371778264910702 585,41.25 550,101.8717782649107 515,41.25"/>

<polygon points="605,-19.371778264910702 640,41.25 605,101.8717782649107 570,41.25"/>

<polygon points="660,-19.371778264910702 695,41.25 660,101.8717782649107 625,41.25"/>

<polygon points="715,-19.371778264910702 750,41.25 715,101.8717782649107 680,41.25"/>

<polygon points="-27.5,8.128221735089298 7.5,68.75 -27.5,129.3717782649107 -62.5,68.75"/>

<polygon points="27.5,8.128221735089298 62.5,68.75 27.5,129.3717782649107 -7.5,68.75"/>

<polygon points="82.5,8.128221735089298 117.5,68.75 82.5,129.3717782649107 47.5,68.75"/>

<polygon points="137.5,8.128221735089298 172.5,68.75 137.5,129.3717782649107 102.5,68.75"/>

<polygon points="192.5,8.128221735089298 227.5,68.75 192.5,129.3717782649107 157.5,68.75"/>

<polygon points="247.5,8.128221735089298 282.5,68.75 247.5,129.3717782649107 212.5,68.75"/>

<polygon points="302.5,8.128221735089298 337.5,68.75 302.5,129.3717782649107 267.5,68.75"/>

<polygon points="357.5,8.128221735089298 392.5,68.75 357.5,129.3717782649107 322.5,68.75"/>

<polygon points="412.5,8.128221735089298 447.5,68.75 412.5,129.3717782649107 377.5,68.75"/>

<polygon points="467.5,8.128221735089298 502.5,68.75 467.5,129.3717782649107 432.5,68.75"/>

<polygon points="522.5,8.128221735089298 557.5,68.75 522.5,129.3717782649107 487.5,68.75"/>

<polygon points="577.5,8.128221735089298 612.5,68.75 577.5,129.3717782649107 542.5,68.75"/>

<polygon points="632.5,8.128221735089298 667.5,68.75 632.5,129.3717782649107 597.5,68.75"/>

<polygon points="687.5,8.128221735089298 722.5,68.75 687.5,129.3717782649107 652.5,68.75"/>

<polygon points="0,35.6282217350893 35,96.25 0,156.8717782649107 -35,96.25"/>

<polygon points="55,35.6282217350893 90,96.25 55,156.8717782649107 20,96.25"/>

<polygon points="110,35.6282217350893 145,96.25 110,156.8717782649107 75,96.25"/>

<polygon points="165,35.6282217350893 200,96.25 165,156.8717782649107 130,96.25"/>

<polygon points="220,35.6282217350893 255,96.25 220,156.8717782649107 185,96.25"/>

<polygon points="275,35.6282217350893 310,96.25 275,156.8717782649107 240,96.25"/>

<polygon points="330,35.6282217350893 365,96.25 330,156.8717782649107 295,96.25"/>

<polygon points="385,35.6282217350893 420,96.25 385,156.8717782649107 350,96.25"/>

<polygon points="440,35.6282217350893 475,96.25 440,156.8717782649107 405,96.25"/>

<polygon points="495,35.6282217350893 530,96.25 495,156.8717782649107 460,96.25"/>

<polygon points="550,35.6282217350893 585,96.25 550,156.8717782649107 515,96.25"/>

<polygon points="605,35.6282217350893 640,96.25 605,156.8717782649107 570,96.25"/>

<polygon points="660,35.6282217350893 695,96.25 660,156.8717782649107 625,96.25"/>

<polygon points="715,35.6282217350893 750,96.25 715,156.8717782649107 680,96.25"/>

<polygon points="-27.5,63.1282217350893 7.5,123.75 -27.5,184.3717782649107 -62.5,123.75"/>

<polygon points="27.5,63.1282217350893 62.5,123.75 27.5,184.3717782649107 -7.5,123.75"/>

<polygon points="82.5,63.1282217350893 117.5,123.75 82.5,184.3717782649107 47.5,123.75"/>

<polygon points="137.5,63.1282217350893 172.5,123.75 137.5,184.3717782649107 102.5,123.75"/>

<polygon points="192.5,63.1282217350893 227.5,123.75 192.5,184.3717782649107 157.5,123.75"/>

<polygon points="247.5,63.1282217350893 282.5,123.75 247.5,184.3717782649107 212.5,123.75"/>

<polygon points="302.5,63.1282217350893 337.5,123.75 302.5,184.3717782649107 267.5,123.75"/>

<polygon points="357.5,63.1282217350893 392.5,123.75 357.5,184.3717782649107 322.5,123.75"/>

<polygon points="412.5,63.1282217350893 447.5,123.75 412.5,184.3717782649107 377.5,123.75"/>

<polygon points="467.5,63.1282217350893 502.5,123.75 467.5,184.3717782649107 432.5,123.75"/>

<polygon points="522.5,63.1282217350893 557.5,123.75 522.5,184.3717782649107 487.5,123.75"/>

<polygon points="577.5,63.1282217350893 612.5,123.75 577.5,184.3717782649107 542.5,123.75"/>

<polygon points="632.5,63.1282217350893 667.5,123.75 632.5,184.3717782649107 597.5,123.75"/>

<polygon points="687.5,63.1282217350893 722.5,123.75 687.5,184.3717782649107 652.5,123.75"/>

<polygon points="0,90.6282217350893 35,151.25 0,211.8717782649107 -35,151.25"/>

<polygon points="55,90.6282217350893 90,151.25 55,211.8717782649107 20,151.25"/>

<polygon points="110,90.6282217350893 145,151.25 110,211.8717782649107 75,151.25"/>

<polygon points="165,90.6282217350893 200,151.25 165,211.8717782649107 130,151.25"/>

<polygon points="220,90.6282217350893 255,151.25 220,211.8717782649107 185,151.25"/>

<polygon points="275,90.6282217350893 310,151.25 275,211.8717782649107 240,151.25"/>

<polygon points="330,90.6282217350893 365,151.25 330,211.8717782649107 295,151.25"/>

<polygon points="385,90.6282217350893 420,151.25 385,211.8717782649107 350,151.25"/>

<polygon points="440,90.6282217350893 475,151.25 440,211.8717782649107 405,151.25"/>

<polygon points="495,90.6282217350893 530,151.25 495,211.8717782649107 460,151.25"/>

<polygon points="550,90.6282217350893 585,151.25 550,211.8717782649107 515,151.25"/>

<polygon points="605,90.6282217350893 640,151.25 605,211.8717782649107 570,151.25"/>

<polygon points="660,90.6282217350893 695,151.25 660,211.8717782649107 625,151.25"/>

<polygon points="715,90.6282217350893 750,151.25 715,211.8717782649107 680,151.25"/>

<polygon points="-27.5,118.1282217350893 7.5,178.75 -27.5,239.3717782649107 -62.5,178.75"/>

<polygon points="27.5,118.1282217350893 62.5,178.75 27.5,239.3717782649107 -7.5,178.75"/>

<polygon points="82.5,118.1282217350893 117.5,178.75 82.5,239.3717782649107 47.5,178.75"/>

<polygon points="137.5,118.1282217350893 172.5,178.75 137.5,239.3717782649107 102.5,178.75"/>

<polygon points="192.5,118.1282217350893 227.5,178.75 192.5,239.3717782649107 157.5,178.75"/>

<polygon points="247.5,118.1282217350893 282.5,178.75 247.5,239.3717782649107 212.5,178.75"/>

<polygon points="302.5,118.1282217350893 337.5,178.75 302.5,239.3717782649107 267.5,178.75"/>

<polygon points="357.5,118.1282217350893 392.5,178.75 357.5,239.3717782649107 322.5,178.75"/>

<polygon points="412.5,118.1282217350893 447.5,178.75 412.5,239.3717782649107 377.5,178.75"/>

<polygon points="467.5,118.1282217350893 502.5,178.75 467.5,239.3717782649107 432.5,178.75"/>

<polygon points="522.5,118.1282217350893 557.5,178.75 522.5,239.3717782649107 487.5,178.75"/>

<polygon points="577.5,118.1282217350893 612.5,178.75 577.5,239.3717782649107 542.5,178.75"/>

<polygon points="632.5,118.1282217350893 667.5,178.75 632.5,239.3717782649107 597.5,178.75"/>

<polygon points="687.5,118.1282217350893 722.5,178.75 687.5,239.3717782649107 652.5,178.75"/>

<polygon points="0,145.6282217350893 35,206.25 0,266.8717782649107 -35,206.25"/>

<polygon points="55,145.6282217350893 90,206.25 55,266.8717782649107 20,206.25"/>

<polygon points="110,145.6282217350893 145,206.25 110,266.8717782649107 75,206.25"/>

<polygon points="165,145.6282217350893 200,206.25 165,266.8717782649107 130,206.25"/>

<polygon points="220,145.6282217350893 255,206.25 220,266.8717782649107 185,206.25"/>

<polygon points="275,145.6282217350893 310,206.25 275,266.8717782649107 240,206.25"/>

<polygon points="330,145.6282217350893 365,206.25 330,266.8717782649107 295,206.25"/>

<polygon points="385,145.6282217350893 420,206.25 385,266.8717782649107 350,206.25"/>

<polygon points="440,145.6282217350893 475,206.25 440,266.8717782649107 405,206.25"/>

<polygon points="495,145.6282217350893 530,206.25 495,266.8717782649107 460,206.25"/>

<polygon points="550,145.6282217350893 585,206.25 550,266.8717782649107 515,206.25"/>

<polygon points="605,145.6282217350893 640,206.25 605,266.8717782649107 570,206.25"/>

<polygon points="660,145.6282217350893 695,206.25 660,266.8717782649107 625,206.25"/>

<polygon points="715,145.6282217350893 750,206.25 715,266.8717782649107 680,206.25"/>

<polygon points="-27.5,173.1282217350893 7.5,233.75 -27.5,294.3717782649107 -62.5,233.75"/>

<polygon points="27.5,173.1282217350893 62.5,233.75 27.5,294.3717782649107 -7.5,233.75"/>

<polygon points="82.5,173.1282217350893 117.5,233.75 82.5,294.3717782649107 47.5,233.75"/>

<polygon points="137.5,173.1282217350893 172.5,233.75 137.5,294.3717782649107 102.5,233.75"/>

<polygon points="192.5,173.1282217350893 227.5,233.75 192.5,294.3717782649107 157.5,233.75"/>

<polygon points="247.5,173.1282217350893 282.5,233.75 247.5,294.3717782649107 212.5,233.75"/>

<polygon points="302.5,173.1282217350893 337.5,233.75 302.5,294.3717782649107 267.5,233.75"/>

<polygon points="357.5,173.1282217350893 392.5,233.75 357.5,294.3717782649107 322.5,233.75"/>

<polygon points="412.5,173.1282217350893 447.5,233.75 412.5,294.3717782649107 377.5,233.75"/>

<polygon points="467.5,173.1282217350893 502.5,233.75 467.5,294.3717782649107 432.5,233.75"/>

<polygon points="522.5,173.1282217350893 557.5,233.75 522.5,294.3717782649107 487.5,233.75"/>

<polygon points="577.5,173.1282217350893 612.5,233.75 577.5,294.3717782649107 542.5,233.75"/>

<polygon points="632.5,173.1282217350893 667.5,233.75 632.5,294.3717782649107 597.5,233.75"/>

<polygon points="687.5,173.1282217350893 722.5,233.75 687.5,294.3717782649107 652.5,233.75"/>

<polygon points="0,200.6282217350893 35,261.25 0,321.8717782649107 -35,261.25"/>

<polygon points="55,200.6282217350893 90,261.25 55,321.8717782649107 20,261.25"/>

<polygon points="110,200.6282217350893 145,261.25 110,321.8717782649107 75,261.25"/>

<polygon points="165,200.6282217350893 200,261.25 165,321.8717782649107 130,261.25"/>

<polygon points="220,200.6282217350893 255,261.25 220,321.8717782649107 185,261.25"/>

<polygon points="275,200.6282217350893 310,261.25 275,321.8717782649107 240,261.25"/>

<polygon points="330,200.6282217350893 365,261.25 330,321.8717782649107 295,261.25"/>

<polygon points="385,200.6282217350893 420,261.25 385,321.8717782649107 350,261.25"/>

<polygon points="440,200.6282217350893 475,261.25 440,321.8717782649107 405,261.25"/>

<polygon points="495,200.6282217350893 530,261.25 495,321.8717782649107 460,261.25"/>

<polygon points="550,200.6282217350893 585,261.25 550,321.8717782649107 515,261.25"/>

<polygon points="605,200.6282217350893 640,261.25 605,321.8717782649107 570,261.25"/>

<polygon points="660,200.6282217350893 695,261.25 660,321.8717782649107 625,261.25"/>

<polygon points="715,200.6282217350893 750,261.25 715,321.8717782649107 680,261.25"/>

<polygon points="-27.5,228.1282217350893 7.5,288.75 -27.5,349.3717782649107 -62.5,288.75"/>

<polygon points="27.5,228.1282217350893 62.5,288.75 27.5,349.3717782649107 -7.5,288.75"/>

<polygon points="82.5,228.1282217350893 117.5,288.75 82.5,349.3717782649107 47.5,288.75"/>

<polygon points="137.5,228.1282217350893 172.5,288.75 137.5,349.3717782649107 102.5,288.75"/>

<polygon points="192.5,228.1282217350893 227.5,288.75 192.5,349.3717782649107 157.5,288.75"/>

<polygon points="247.5,228.1282217350893 282.5,288.75 247.5,349.3717782649107 212.5,288.75"/>

<polygon points="302.5,228.1282217350893 337.5,288.75 302.5,349.3717782649107 267.5,288.75"/>

<polygon points="357.5,228.1282217350893 392.5,288.75 357.5,349.3717782649107 322.5,288.75"/>

<polygon points="412.5,228.1282217350893 447.5,288.75 412.5,349.3717782649107 377.5,288.75"/>

<polygon points="467.5,228.1282217350893 502.5,288.75 467.5,349.3717782649107 432.5,288.75"/>

<polygon points="522.5,228.1282217350893 557.5,288.75 522.5,349.3717782649107 487.5,288.75"/>

<polygon points="577.5,228.1282217350893 612.5,288.75 577.5,349.3717782649107 542.5,288.75"/>

<polygon points="632.5,228.1282217350893 667.5,288.75 632.5,349.3717782649107 597.5,288.75"/>

<polygon points="687.5,228.1282217350893 722.5,288.75 687.5,349.3717782649107 652.5,288.75"/>

<polygon points="0,255.6282217350893 35,316.25 0,376.8717782649107 -35,316.25"/>

<polygon points="55,255.6282217350893 90,316.25 55,376.8717782649107 20,316.25"/>

<polygon points="110,255.6282217350893 145,316.25 110,376.8717782649107 75,316.25"/>

<polygon points="165,255.6282217350893 200,316.25 165,376.8717782649107 130,316.25"/>

<polygon points="220,255.6282217350893 255,316.25 220,376.8717782649107 185,316.25"/>

<polygon points="275,255.6282217350893 310,316.25 275,376.8717782649107 240,316.25"/>

<polygon points="330,255.6282217350893 365,316.25 330,376.8717782649107 295,316.25"/>

<polygon points="385,255.6282217350893 420,316.25 385,376.8717782649107 350,316.25"/>

<polygon points="440,255.6282217350893 475,316.25 440,376.8717782649107 405,316.25"/>

<polygon points="495,255.6282217350893 530,316.25 495,376.8717782649107 460,316.25"/>

<polygon points="550,255.6282217350893 585,316.25 550,376.8717782649107 515,316.25"/>

<polygon points="605,255.6282217350893 640,316.25 605,376.8717782649107 570,316.25"/>

<polygon points="660,255.6282217350893 695,316.25 660,376.8717782649107 625,316.25"/>

<polygon points="715,255.6282217350893 750,316.25 715,376.8717782649107 680,316.25"/>

<polygon points="-27.5,283.1282217350893 7.5,343.75 -27.5,404.3717782649107 -62.5,343.75"/>

<polygon points="27.5,283.1282217350893 62.5,343.75 27.5,404.3717782649107 -7.5,343.75"/>

<polygon points="82.5,283.1282217350893 117.5,343.75 82.5,404.3717782649107 47.5,343.75"/>

<polygon points="137.5,283.1282217350893 172.5,343.75 137.5,404.3717782649107 102.5,343.75"/>

<polygon points="192.5,283.1282217350893 227.5,343.75 192.5,404.3717782649107 157.5,343.75"/>

<polygon points="247.5,283.1282217350893 282.5,343.75 247.5,404.3717782649107 212.5,343.75"/>

<polygon points="302.5,283.1282217350893 337.5,343.75 302.5,404.3717782649107 267.5,343.75"/>

<polygon points="357.5,283.1282217350893 392.5,343.75 357.5,404.3717782649107 322.5,343.75"/>

<polygon points="412.5,283.1282217350893 447.5,343.75 412.5,404.3717782649107 377.5,343.75"/>

<polygon points="467.5,283.1282217350893 502.5,343.75 467.5,404.3717782649107 432.5,343.75"/>

<polygon points="522.5,283.1282217350893 557.5,343.75 522.5,404.3717782649107 487.5,343.75"/>

<polygon points="577.5,283.1282217350893 612.5,343.75 577.5,404.3717782649107 542.5,343.75"/>

<polygon points="632.5,283.1282217350893 667.5,343.75 632.5,404.3717782649107 597.5,343.75"/>

<polygon points="687.5,283.1282217350893 722.5,343.75 687.5,404.3717782649107 652.5,343.75"/>

<polygon points="0,310.6282217350893 35,371.25 0,431.8717782649107 -35,371.25"/>

<polygon points="55,310.6282217350893 90,371.25 55,431.8717782649107 20,371.25"/>

<polygon points="110,310.6282217350893 145,371.25 110,431.8717782649107 75,371.25"/>

<polygon points="165,310.6282217350893 200,371.25 165,431.8717782649107 130,371.25"/>

<polygon points="220,310.6282217350893 255,371.25 220,431.8717782649107 185,371.25"/>

<polygon points="275,310.6282217350893 310,371.25 275,431.8717782649107 240,371.25"/>

<polygon points="330,310.6282217350893 365,371.25 330,431.8717782649107 295,371.25"/>

<polygon points="385,310.6282217350893 420,371.25 385,431.8717782649107 350,371.25"/>

<polygon points="440,310.6282217350893 475,371.25 440,431.8717782649107 405,371.25"/>

<polygon points="495,310.6282217350893 530,371.25 495,431.8717782649107 460,371.25"/>

<polygon points="550,310.6282217350893 585,371.25 550,431.8717782649107 515,371.25"/>

<polygon points="605,310.6282217350893 640,371.25 605,431.8717782649107 570,371.25"/>

<polygon points="660,310.6282217350893 695,371.25 660,431.8717782649107 625,371.25"/>

<polygon points="715,310.6282217350893 750,371.25 715,431.8717782649107 680,371.25"/>

<polygon points="-27.5,338.1282217350893 7.5,398.75 -27.5,459.3717782649107 -62.5,398.75"/>

<polygon points="27.5,338.1282217350893 62.5,398.75 27.5,459.3717782649107 -7.5,398.75"/>

<polygon points="82.5,338.1282217350893 117.5,398.75 82.5,459.3717782649107 47.5,398.75"/>

<polygon points="137.5,338.1282217350893 172.5,398.75 137.5,459.3717782649107 102.5,398.75"/>

<polygon points="192.5,338.1282217350893 227.5,398.75 192.5,459.3717782649107 157.5,398.75"/>

<polygon points="247.5,338.1282217350893 282.5,398.75 247.5,459.3717782649107 212.5,398.75"/>

<polygon points="302.5,338.1282217350893 337.5,398.75 302.5,459.3717782649107 267.5,398.75"/>

<polygon points="357.5,338.1282217350893 392.5,398.75 357.5,459.3717782649107 322.5,398.75"/>

<polygon points="412.5,338.1282217350893 447.5,398.75 412.5,459.3717782649107 377.5,398.75"/>

<polygon points="467.5,338.1282217350893 502.5,398.75 467.5,459.3717782649107 432.5,398.75"/>

<polygon points="522.5,338.1282217350893 557.5,398.75 522.5,459.3717782649107 487.5,398.75"/>

<polygon points="577.5,338.1282217350893 612.5,398.75 577.5,459.3717782649107 542.5,398.75"/>

<polygon points="632.5,338.1282217350893 667.5,398.75 632.5,459.3717782649107 597.5,398.75"/>

<polygon points="687.5,338.1282217350893 722.5,398.75 687.5,459.3717782649107 652.5,398.75"/>

<polygon points="0,365.6282217350893 35,426.25 0,486.8717782649107 -35,426.25"/>

<polygon points="55,365.6282217350893 90,426.25 55,486.8717782649107 20,426.25"/>

<polygon points="110,365.6282217350893 145,426.25 110,486.8717782649107 75,426.25"/>

<polygon points="165,365.6282217350893 200,426.25 165,486.8717782649107 130,426.25"/>

<polygon points="220,365.6282217350893 255,426.25 220,486.8717782649107 185,426.25"/>

<polygon points="275,365.6282217350893 310,426.25 275,486.8717782649107 240,426.25"/>

<polygon points="330,365.6282217350893 365,426.25 330,486.8717782649107 295,426.25"/>

<polygon points="385,365.6282217350893 420,426.25 385,486.8717782649107 350,426.25"/>

<polygon points="440,365.6282217350893 475,426.25 440,486.8717782649107 405,426.25"/>

<polygon points="495,365.6282217350893 530,426.25 495,486.8717782649107 460,426.25"/>

<polygon points="550,365.6282217350893 585,426.25 550,486.8717782649107 515,426.25"/>

<polygon points="605,365.6282217350893 640,426.25 605,486.8717782649107 570,426.25"/>

<polygon points="660,365.6282217350893 695,426.25 660,486.8717782649107 625,426.25"/>

<polygon points="715,365.6282217350893 750,426.25 715,486.8717782649107 680,426.25"/>

<polygon points="-27.5,393.1282217350893 7.5,453.75 -27.5,514.3717782649107 -62.5,453.75"/>

<polygon points="27.5,393.1282217350893 62.5,453.75 27.5,514.3717782649107 -7.5,453.75"/>

<polygon points="82.5,393.1282217350893 117.5,453.75 82.5,514.3717782649107 47.5,453.75"/>

<polygon points="137.5,393.1282217350893 172.5,453.75 137.5,514.3717782649107 102.5,453.75"/>

<polygon points="192.5,393.1282217350893 227.5,453.75 192.5,514.3717782649107 157.5,453.75"/>

<polygon points="247.5,393.1282217350893 282.5,453.75 247.5,514.3717782649107 212.5,453.75"/>

<polygon points="302.5,393.1282217350893 337.5,453.75 302.5,514.3717782649107 267.5,453.75"/>

<polygon points="357.5,393.1282217350893 392.5,453.75 357.5,514.3717782649107 322.5,453.75"/>

<polygon points="412.5,393.1282217350893 447.5,453.75 412.5,514.3717782649107 377.5,453.75"/>

<polygon points="467.5,393.1282217350893 502.5,453.75 467.5,514.3717782649107 432.5,453.75"/>

<polygon points="522.5,393.1282217350893 557.5,453.75 522.5,514.3717782649107 487.5,453.75"/>

<polygon points="577.5,393.1282217350893 612.5,453.75 577.5,514.3717782649107 542.5,453.75"/>

<polygon points="632.5,393.1282217350893 667.5,453.75 632.5,514.3717782649107 597.5,453.75"/>

<polygon points="687.5,393.1282217350893 722.5,453.75 687.5,514.3717782649107 652.5,453.75"/>

<polygon points="0,420.6282217350893 35,481.25 0,541.8717782649107 -35,481.25"/>

<polygon points="55,420.6282217350893 90,481.25 55,541.8717782649107 20,481.25"/>

<polygon points="110,420.6282217350893 145,481.25 110,541.8717782649107 75,481.25"/>

<polygon points="165,420.6282217350893 200,481.25 165,541.8717782649107 130,481.25"/>

<polygon points="220,420.6282217350893 255,481.25 220,541.8717782649107 185,481.25"/>

<polygon points="275,420.6282217350893 310,481.25 275,541.8717782649107 240,481.25"/>

<polygon points="330,420.6282217350893 365,481.25 330,541.8717782649107 295,481.25"/>

<polygon points="385,420.6282217350893 420,481.25 385,541.8717782649107 350,481.25"/>

<polygon points="440,420.6282217350893 475,481.25 440,541.8717782649107 405,481.25"/>

<polygon points="495,420.6282217350893 530,481.25 495,541.8717782649107 460,481.25"/>

<polygon points="550,420.6282217350893 585,481.25 550,541.8717782649107 515,481.25"/>

<polygon points="605,420.6282217350893 640,481.25 605,541.8717782649107 570,481.25"/>

<polygon points="660,420.6282217350893 695,481.25 660,541.8717782649107 625,481.25"/>

<polygon points="715,420.6282217350893 750,481.25 715,541.8717782649107 680,481.25"/>

<polygon points="-27.5,448.1282217350893 7.5,508.75 -27.5,569.3717782649107 -62.5,508.75"/>

<polygon points="27.5,448.1282217350893 62.5,508.75 27.5,569.3717782649107 -7.5,508.75"/>

<polygon points="82.5,448.1282217350893 117.5,508.75 82.5,569.3717782649107 47.5,508.75"/>

<polygon points="137.5,448.1282217350893 172.5,508.75 137.5,569.3717782649107 102.5,508.75"/>

<polygon points="192.5,448.1282217350893 227.5,508.75 192.5,569.3717782649107 157.5,508.75"/>

<polygon points="247.5,448.1282217350893 282.5,508.75 247.5,569.3717782649107 212.5,508.75"/>

<polygon points="302.5,448.1282217350893 337.5,508.75 302.5,569.3717782649107 267.5,508.75"/>

<polygon points="357.5,448.1282217350893 392.5,508.75 357.5,569.3717782649107 322.5,508.75"/>

<polygon points="412.5,448.1282217350893 447.5,508.75 412.5,569.3717782649107 377.5,508.75"/>

<polygon points="467.5,448.1282217350893 502.5,508.75 467.5,569.3717782649107 432.5,508.75"/>

<polygon points="522.5,448.1282217350893 557.5,508.75 522.5,569.3717782649107 487.5,508.75"/>

<polygon points="577.5,448.1282217350893 612.5,508.75 577.5,569.3717782649107 542.5,508.75"/>

<polygon points="632.5,448.1282217350893 667.5,508.75 632.5,569.3717782649107 597.5,508.75"/>

<polygon points="687.5,448.1282217350893 722.5,508.75 687.5,569.3717782649107 652.5,508.75"/>

<polygon points="0,475.6282217350893 35,536.25 0,596.8717782649107 -35,536.25"/>

<polygon points="55,475.6282217350893 90,536.25 55,596.8717782649107 20,536.25"/>

<polygon points="110,475.6282217350893 145,536.25 110,596.8717782649107 75,536.25"/>

<polygon points="165,475.6282217350893 200,536.25 165,596.8717782649107 130,536.25"/>

<polygon points="220,475.6282217350893 255,536.25 220,596.8717782649107 185,536.25"/>

<polygon points="275,475.6282217350893 310,536.25 275,596.8717782649107 240,536.25"/>

<polygon points="330,475.6282217350893 365,536.25 330,596.8717782649107 295,536.25"/>

<polygon points="385,475.6282217350893 420,536.25 385,596.8717782649107 350,536.25"/>

<polygon points="440,475.6282217350893 475,536.25 440,596.8717782649107 405,536.25"/>

<polygon points="495,475.6282217350893 530,536.25 495,596.8717782649107 460,536.25"/>

<polygon points="550,475.6282217350893 585,536.25 550,596.8717782649107 515,536.25"/>

<polygon points="605,475.6282217350893 640,536.25 605,596.8717782649107 570,536.25"/>

<polygon points="660,475.6282217350893 695,536.25 660,596.8717782649107 625,536.25"/>

<polygon points="715,475.6282217350893 750,536.25 715,596.8717782649107 680,536.25"/>
</g>
</svg>